<?xml version="1.0" standalone="no"?>
<!DOCTYPE svg PUBLIC "-//W3C//DTD SVG 20010904//EN"
 "http://www.w3.org/TR/2001/REC-SVG-20010904/DTD/svg10.dtd">
<svg version="1.0" xmlns="http://www.w3.org/2000/svg"
 width="512.000000pt" height="512.000000pt" viewBox="0 0 512.000000 512.000000"
 preserveAspectRatio="xMidYMid meet">

<g transform="translate(0.000000,512.000000) scale(0.100000,-0.100000)"
fill="#000000" stroke="none">
<path d="M2534 5083 c-12 -2 -34 -18 -50 -34 l-29 -30 -3 -926 -2 -925 -65 65
c-92 93 -111 105 -568 372 l-412 240 -5 486 c-5 532 -3 509 -66 535 -45 19
-99 2 -125 -39 -19 -32 -19 -60 -16 -1817 l2 -1785 22 -80 c58 -215 177 -402
335 -529 46 -36 265 -170 542 -330 l466 -268 466 268 c275 160 497 294 542
331 134 106 249 272 308 446 55 160 54 119 54 1992 0 1627 -1 1732 -18 1765
-23 46 -77 66 -125 46 -65 -27 -62 -2 -67 -535 l-5 -486 -414 -240 c-419 -245
-523 -314 -589 -395 l-37 -44 -5 927 -5 927 -30 29 c-31 29 -64 41 -101 34z
m-773 -1689 c195 -113 378 -224 408 -247 119 -92 221 -253 261 -412 19 -75 20
-109 18 -513 l-3 -432 -345 199 c-190 110 -374 221 -410 248 -121 91 -213 230
-261 393 -21 72 -23 95 -27 523 -2 246 -2 447 1 447 2 0 164 -93 358 -206z
m1956 -236 c-4 -473 -6 -496 -59 -621 -51 -122 -156 -254 -258 -324 -25 -17
-198 -119 -385 -227 l-340 -196 -3 432 c-2 404 -1 438 18 513 41 165 146 326
272 419 59 44 733 443 751 445 5 1 7 -198 4 -441z m-2092 -1134 c33 -22 232
-138 443 -259 l382 -220 0 -607 c0 -335 -2 -608 -5 -608 -11 0 -704 405 -747
436 -149 110 -260 302 -288 500 -6 43 -10 263 -10 516 l0 442 83 -81 c45 -44
109 -98 142 -119z m2086 -741 c-25 -205 -128 -392 -283 -510 -45 -35 -739
-443 -753 -443 -3 0 -5 273 -5 608 l0 607 383 220 c452 260 500 291 592 385
l70 71 3 -428 c1 -239 -2 -464 -7 -510z"/>
<path d="M1854 4629 l-29 -30 -3 -337 c-3 -358 -1 -376 46 -412 43 -34 127
-18 152 29 6 13 10 149 10 371 l0 352 -29 29 c-24 23 -38 29 -73 29 -36 0 -50
-6 -74 -31z"/>
<path d="M3119 4631 l-29 -29 0 -352 c0 -222 4 -358 10 -371 26 -47 110 -63
153 -28 45 34 48 69 45 421 l-3 327 -29 30 c-24 25 -38 31 -74 31 -35 0 -49
-6 -73 -29z"/>
</g>
</svg>
